<?xml version="1.0" encoding="utf-8"?>
<svg xmlns="http://www.w3.org/2000/svg" xmlns:xlink="http://www.w3.org/1999/xlink" height="1383.970325" width="1877.199425">
    <g>
        <g transform="matrix(1.000000,0.000000,0.000000,1.000000,162.911497,161.296750)">
            <path d=" M181.015499 79.746500 L171.860500 97.821500 91.984501 79.746500 122.421497 64.178500Z M181.015499 79.746500" fill="#5B80AC" opacity="1.000000"></path>
            <path d=" M123.077999 58.066000 L178.922001 71.802000 138.410999 51.198000Z M123.077999 58.066000" fill="#014E7F" opacity="1.000000"></path>
            <path d=" M168.120506 121.085003 L219.390511 153.007999 262.879494 126.806004 262.879494 122.225002 215.500511 84.692001 189.865501 75.992001Z M168.120506 121.085003" fill="#4678AC" opacity="1.000000"></path>
            <path d=" M170.027496 130.298496 L198.868500 193.701504 213.972504 157.999500Z M170.027496 130.298496" fill="#26689E" opacity="1.000000"></path>
            <path d=" M167.001999 140.157501 L204.998001 224.842499 174.789001 208.590500Z M167.001999 140.157501" fill="#006094" opacity="1.000000"></path>
            <path d=" M159.055000 124.933502 L167.064003 205.956497 116.484001 267.066498 70.935997 236.629501 92.909004 161.665504Z M159.055000 124.933502" fill="#014E7F" opacity="1.000000"></path>
            <path d=" M62.943501 173.724495 L78.731503 185.395500 86.056499 163.657494 79.650501 150.604500 67.289501 158.392494Z M62.943501 173.724495" fill="#4678AC" opacity="1.000000"></path>
            <path d=" M124.912498 268.652504 L151.003502 236.604500 188.087502 271.395500Z M124.912498 268.652504" fill="#26689E" opacity="1.000000"></path>
            <path d=" M155.164001 232.175507 L174.622009 251.861496 185.835999 247.508499 158.826004 227.138504Z M155.164001 232.175507" fill="#4678AC" opacity="1.000000"></path>
        </g>
    </g>
</svg>
